<svg xmlns="http://www.w3.org/2000/svg" viewBox="0 0 300 60" fill="none" xmlns:v="https://vecta.io/nano"><rect width="300" height="60" rx="12" fill="#fde937"/><path d="m103.782 29.439-5.407-7.105a.894.894 0 0 0-.658-.334H72.8v15.874H98a.667.667 0 0 0 .563-.286l5.266-6.862a1.168 1.168 0 0 0-.047-1.287zM84.6 35.066h-8.462V24.718h8.274v2.623h-4.89v1.192h4.326v2.527h-4.325v1.335H84.6v2.67zm8.18 0L91.042 32.3l-1.74 2.766H85.4l3.667-5.198-3.573-5.102h3.855l1.74 2.623 1.692-2.623h3.714l-3.526 5.007 3.76 5.34h-3.948v-.047z" fill="#1e1e1e"/><g fill-rule="evenodd"><path d="M76.124 35.066h8.463v-2.67h-5.078v-1.335h4.325v-2.527H79.51V27.34h4.89V24.72h-8.275v10.347zm14.903-2.765 1.74 2.765v.048h3.95l-3.762-5.34 3.526-5.008h-3.714l-1.693 2.623-1.74-2.623H85.48l3.573 5.103-3.667 5.197h3.902l1.74-2.765z" fill="#fff"/><path opacity=".95" d="M22.232 31.79c.07.52.21.91.417 1.167.38.468 1.03.703 1.95.703.552 0 1-.062 1.344-.186.653-.236.98-.677.98-1.32a.978.978 0 0 0-.486-.873c-.324-.201-.833-.379-1.526-.533l-1.184-.27c-1.164-.268-1.968-.56-2.414-.873-.754-.526-1.13-1.347-1.13-2.464 0-1.02.364-1.867 1.092-2.541s1.8-1.012 3.211-1.012c1.179 0 2.185.318 3.017.954s1.269 1.559 1.31 2.769h-2.247c-.04-.685-.334-1.172-.88-1.46-.365-.19-.818-.286-1.36-.286-.602 0-1.082.124-1.442.37s-.538.593-.538 1.036a.98.98 0 0 0 .53.911c.229.134.714.291 1.458.471l1.928.472c.845.206 1.483.481 1.913.826.668.536 1.002 1.31 1.002 2.325 0 1.04-.39 1.904-1.173 2.591s-1.886 1.031-3.313 1.031c-1.457 0-2.604-.338-3.439-1.015S20 32.975 20 31.79h2.232zm7.65-3.259v-1.568h1.155v-2.348h2.14v2.348h1.343v1.568h-1.343v4.449c0 .345.043.56.129.645s.35.127.79.127a6.135 6.135 0 0 0 .425-.015v1.645l-1.025.039c-1.022.036-1.72-.144-2.095-.54-.243-.253-.364-.642-.364-1.167V28.53h-1.154zm9.291-.054c-.5 0-.889.16-1.165.479s-.449.752-.52 1.297h3.363c-.035-.581-.209-1.023-.52-1.324a1.6 1.6 0 0 0-1.158-.452zm0-1.815c.689 0 1.308.131 1.86.394s1.007.677 1.367 1.243c.323.5.533 1.08.63 1.738.055.387.078.943.068 1.669h-5.663c.03.844.291 1.436.782 1.776.299.211.658.317 1.078.317.445 0 .807-.129 1.085-.386.152-.14.286-.333.403-.58h2.209c-.056.5-.312 1.007-.767 1.522-.709.819-1.7 1.228-2.976 1.228a4.154 4.154 0 0 1-2.785-1.035c-.805-.69-1.207-1.813-1.207-3.368 0-1.457.363-2.574 1.09-3.352s1.668-1.166 2.826-1.166zm9.944 4.55a2.339 2.339 0 0 1-.413.212 3.4 3.4 0 0 1-.574.15l-.486.093c-.455.082-.781.183-.979.301-.334.201-.5.512-.5.935 0 .376.102.647.307.815s.454.25.747.25c.466 0 .895-.138 1.287-.416s.596-.786.61-1.522v-.819zm-1.313-1.028c.4-.052.686-.116.857-.193.31-.134.463-.343.463-.626 0-.345-.117-.583-.352-.714s-.581-.197-1.036-.197c-.511 0-.873.129-1.086.386-.152.19-.253.448-.303.773h-2.088c.046-.737.248-1.342.608-1.816.571-.741 1.553-1.112 2.945-1.112.905 0 1.71.183 2.413.549s1.055 1.055 1.055 2.07v3.861l.015.974c.016.288.059.484.13.587s.177.188.318.255v.324H49.39a2.498 2.498 0 0 1-.136-.479 5.957 5.957 0 0 1-.061-.51c-.299.33-.643.61-1.032.842-.466.273-.992.41-1.58.41-.748 0-1.367-.218-1.855-.653s-.733-1.052-.733-1.85c0-1.035.393-1.784 1.177-2.248.43-.252 1.063-.432 1.898-.54l.736-.093zm7.606 5.12h-2.164V23.92h2.164v11.385zm1.26-6.773v-1.568h1.153v-2.348h2.14v2.348h1.344v1.568h-1.343v4.449c0 .345.043.56.129.645s.35.127.79.127a6.158 6.158 0 0 0 .424-.015v1.645l-1.024.039c-1.023.036-1.72-.144-2.095-.54-.243-.253-.365-.642-.365-1.167V28.53H56.67zm10.588-1.861c.511 0 .976.09 1.393.27a2.45 2.45 0 0 1 1.029.826c.227.315.367.638.417.97s.076.874.076 1.626v4.943h-2.209v-5.121c0-.453-.076-.819-.227-1.097-.198-.391-.572-.587-1.124-.587-.572 0-1.006.195-1.302.583s-.444.944-.444 1.665v4.557h-2.156V23.959h2.156v4.024c.314-.49.677-.83 1.09-1.024a3.03 3.03 0 0 1 1.301-.29z" fill="#1e1e1e"/></g><path fill="#000" d="M112 38h1V22h-1z"/><path d="M160.343 36.5V23.41h8.821v2.281h-6.053v3.12h5.599v2.281h-5.599v3.126h6.078V36.5h-8.846zm13.246-9.818l1.802 3.432 1.848-3.432h2.793l-2.844 4.909 2.921 4.909h-2.781l-1.937-3.394-1.904 3.394h-2.813l2.915-4.91-2.813-4.908h2.813zm12.145 10.01c-1.006 0-1.871-.213-2.596-.64a4.315 4.315 0 0 1-1.661-1.79c-.384-.762-.576-1.64-.576-2.633 0-1.005.194-1.888.582-2.646a4.32 4.32 0 0 1 1.668-1.783c.72-.43 1.577-.646 2.57-.646.856 0 1.606.155 2.25.467a3.765 3.765 0 0 1 1.528 1.31c.375.563.581 1.223.62 1.982h-2.57c-.072-.49-.264-.885-.575-1.183-.307-.303-.71-.454-1.208-.454-.422 0-.791.115-1.106.345s-.554.556-.729.991-.262.961-.262 1.579c0 .626.085 1.159.256 1.598s.419.773.735 1.004.684.345 1.106.345c.311 0 .59-.064.837-.192a1.62 1.62 0 0 0 .62-.556 2.13 2.13 0 0 0 .326-.889h2.57c-.043.75-.248 1.41-.614 1.982a3.706 3.706 0 0 1-1.502 1.33c-.639.319-1.396.479-2.269.479zm8.851-5.868V36.5h-2.723V23.41h2.646v5.004h.115a2.78 2.78 0 0 1 1.074-1.361c.495-.333 1.115-.499 1.86-.499.682 0 1.277.15 1.784.447s.907.718 1.189 1.272.426 1.209.422 1.976V36.5h-2.723v-5.766c.004-.605-.15-1.076-.461-1.412s-.737-.505-1.291-.505c-.371 0-.699.079-.984.236a1.673 1.673 0 0 0-.665.69c-.158.299-.239.659-.243 1.08zm11.309 5.861c-.626 0-1.184-.108-1.675-.326a2.698 2.698 0 0 1-1.163-.978c-.281-.434-.422-.975-.422-1.623 0-.546.1-1.004.301-1.375s.473-.669.818-.894a3.965 3.965 0 0 1 1.176-.512 8.958 8.958 0 0 1 1.393-.243l1.381-.166c.35-.055.603-.136.761-.243a.535.535 0 0 0 .236-.473v-.038c0-.405-.128-.718-.383-.94s-.61-.332-1.074-.332c-.49 0-.88.109-1.17.326a1.5 1.5 0 0 0-.575.805l-2.519-.204a3.42 3.42 0 0 1 .755-1.547 3.616 3.616 0 0 1 1.451-1.01c.596-.239 1.287-.358 2.071-.358a6.28 6.28 0 0 1 1.566.192 4.11 4.11 0 0 1 1.336.594c.392.269.701.614.927 1.036s.338.918.338 1.502V36.5h-2.582v-1.361h-.077a2.748 2.748 0 0 1-.633.811c-.264.23-.581.411-.952.544a3.94 3.94 0 0 1-1.285.191zm.78-1.879c.401 0 .754-.079 1.061-.236a1.88 1.88 0 0 0 .722-.652 1.68 1.68 0 0 0 .262-.927v-1.042a1.453 1.453 0 0 1-.351.153 6.431 6.431 0 0 1-.492.122l-.55.096-.499.07a3.381 3.381 0 0 0-.837.224 1.33 1.33 0 0 0-.556.415c-.132.17-.198.384-.198.64 0 .37.134.653.402.85.273.191.618.287 1.036.287zm9.585-3.982V36.5h-2.723v-9.818h2.595v1.732h.115a2.74 2.74 0 0 1 1.093-1.355c.511-.337 1.132-.505 1.86-.505.682 0 1.276.15 1.784.447a3.04 3.04 0 0 1 1.182 1.279c.281.55.422 1.206.422 1.969V36.5h-2.723v-5.766c.004-.6-.149-1.07-.46-1.406s-.74-.511-1.285-.511c-.367 0-.69.079-.972.236a1.65 1.65 0 0 0-.652.69c-.153.299-.232.659-.236 1.08zm12.897 9.562c-.882 0-1.638-.121-2.269-.364s-1.125-.565-1.495-.978a3.007 3.007 0 0 1-.723-1.393l2.519-.34c.076.197.198.38.364.55s.386.307.658.41.614.16 1.01.16c.593 0 1.081-.145 1.464-.435s.582-.765.582-1.439v-1.796h-.115a2.612 2.612 0 0 1-1.458 1.368c-.375.154-.822.23-1.342.23a4.03 4.03 0 0 1-2.013-.511c-.601-.345-1.081-.871-1.439-1.579s-.53-1.61-.53-2.697c0-1.113.181-2.041.543-2.787s.844-1.304 1.445-1.675a3.73 3.73 0 0 1 1.988-.556c.549 0 1.01.094 1.38.281s.669.414.895.69.407.542.531.806h.102v-1.65h2.704v9.915c0 .835-.205 1.534-.614 2.097s-.976.984-1.7 1.265c-.72.286-1.549.428-2.487.428zm.058-6.072c.439 0 .81-.109 1.112-.326.307-.222.541-.537.703-.946s.25-.908.25-1.483-.081-1.074-.243-1.496-.397-.756-.703-.99-.68-.352-1.119-.352c-.447 0-.825.121-1.131.364s-.539.571-.697.997-.237.919-.237 1.477c0 .567.079 1.057.237 1.47s.394.727.697.952.684.333 1.131.333zm11.384 2.378c-1.01 0-1.879-.205-2.608-.614a4.203 4.203 0 0 1-1.674-1.751c-.393-.759-.589-1.656-.589-2.691 0-1.01.196-1.897.589-2.66a4.343 4.343 0 0 1 1.655-1.783c.716-.426 1.555-.639 2.519-.639.647 0 1.25.104 1.808.313a4.015 4.015 0 0 1 1.471.927c.422.413.75.933.984 1.56s.352 1.35.352 2.186v.748h-8.291V30.6h5.727c0-.392-.085-.74-.255-1.042a1.834 1.834 0 0 0-.71-.71 2.022 2.022 0 0 0-1.042-.261 2.1 2.1 0 0 0-1.099.287 2.013 2.013 0 0 0-.742.76 2.15 2.15 0 0 0-.274 1.056v1.604c0 .486.089.906.268 1.26a1.96 1.96 0 0 0 .773.817c.333.192.727.288 1.183.288a2.56 2.56 0 0 0 .831-.128 1.72 1.72 0 0 0 .645-.383c.179-.17.316-.38.41-.627l2.518.166a3.443 3.443 0 0 1-.786 1.586c-.392.447-.899.797-1.521 1.048s-1.332.37-2.142.37z" fill="#1e1e1e"/></svg>